<svg xmlns="http://www.w3.org/2000/svg" xmlns:xlink="http://www.w3.org/1999/xlink" width="1920" zoomAndPan="magnify" viewBox="0 0 1440 809.999993" height="1080" preserveAspectRatio="xMidYMid meet" version="1.0"><defs><g/><clipPath id="72cac1e5da"><path d="M 292 288.03125 L 563.472656 288.03125 L 563.472656 404 L 292 404 Z M 292 288.03125 " clip-rule="nonzero"/></clipPath><clipPath id="90a266b101"><path d="M 264.972656 404 L 536 404 L 536 519.78125 L 264.972656 519.78125 Z M 264.972656 404 " clip-rule="nonzero"/></clipPath></defs><g clip-path="url(#72cac1e5da)"><path fill="#00adef" d="M 292.675781 404 L 337.472656 404 L 372.746094 359.386719 L 327.949219 359.386719 Z M 518.511719 288.023438 L 424.765625 404 L 469.5625 404 L 563.308594 288.023438 Z M 428.753906 317.164062 L 358.722656 404 L 403.515625 404 L 473.546875 317.164062 L 428.753906 317.164062 " fill-opacity="1" fill-rule="nonzero"/></g><g clip-path="url(#90a266b101)"><path fill="#f7fff7" d="M 535.609375 404 L 490.8125 404 L 455.539062 448.613281 L 500.335938 448.613281 Z M 309.769531 519.976562 L 403.515625 404 L 358.71875 404 L 264.972656 519.976562 Z M 399.53125 490.835938 L 469.5625 404 L 424.765625 404 L 354.734375 490.835938 L 399.53125 490.835938 " fill-opacity="1" fill-rule="nonzero"/></g><g fill="#00adef" fill-opacity="1"><g transform="translate(577.983481, 386.065429)"><g><path d="M 48.28125 -34.875 C 53.195312 -31.382812 55.65625 -26.421875 55.65625 -19.984375 C 55.65625 -17.035156 54.960938 -14.265625 53.578125 -11.671875 C 52.191406 -9.078125 50.289062 -6.796875 47.875 -4.828125 C 45.457031 -2.859375 42.640625 -1.316406 39.421875 -0.203125 C 36.203125 0.910156 32.765625 1.46875 29.109375 1.46875 C 26.328125 1.46875 23.617188 1.109375 20.984375 0.390625 C 18.347656 -0.316406 15.910156 -1.296875 13.671875 -2.546875 C 11.441406 -3.796875 9.5 -5.289062 7.84375 -7.03125 C 6.1875 -8.78125 4.957031 -10.726562 4.15625 -12.875 C 6.207031 -13.851562 8.484375 -14.945312 10.984375 -16.15625 C 13.492188 -17.363281 15.6875 -18.460938 17.5625 -19.453125 C 18.375 -18.109375 19.628906 -16.875 21.328125 -15.75 C 23.023438 -14.632812 25.347656 -14.078125 28.296875 -14.078125 C 31.335938 -14.078125 33.570312 -14.789062 35 -16.21875 C 36.425781 -17.65625 37.140625 -19 37.140625 -20.25 C 37.140625 -21.144531 36.648438 -21.972656 35.671875 -22.734375 C 34.691406 -23.492188 33.578125 -24.097656 32.328125 -24.546875 C 30.535156 -25.253906 29.054688 -25.628906 27.890625 -25.671875 C 26.734375 -25.722656 25.394531 -25.972656 23.875 -26.421875 C 19.039062 -27.578125 15.347656 -29.113281 12.796875 -31.03125 C 10.253906 -32.957031 8.398438 -34.90625 7.234375 -36.875 C 6.078125 -38.84375 5.429688 -40.71875 5.296875 -42.5 C 5.160156 -44.289062 5.09375 -45.722656 5.09375 -46.796875 C 5.09375 -49.660156 5.71875 -52.390625 6.96875 -54.984375 C 8.21875 -57.578125 9.9375 -59.832031 12.125 -61.75 C 14.320312 -63.675781 16.875 -65.21875 19.78125 -66.375 C 22.6875 -67.539062 25.796875 -68.125 29.109375 -68.125 C 31.878906 -68.125 34.515625 -67.722656 37.015625 -66.921875 C 39.515625 -66.117188 41.789062 -65 43.84375 -63.5625 C 45.90625 -62.132812 47.671875 -60.4375 49.140625 -58.46875 C 50.617188 -56.5 51.71875 -54.3125 52.4375 -51.90625 L 38.09375 -47.078125 C 37.550781 -48.679688 36.453125 -49.972656 34.796875 -50.953125 C 33.148438 -51.941406 31.382812 -52.4375 29.5 -52.4375 C 27.625 -52.4375 26.101562 -51.8125 24.9375 -50.5625 C 23.78125 -49.3125 23.203125 -48.054688 23.203125 -46.796875 C 23.203125 -45.285156 23.757812 -44.101562 24.875 -43.25 C 25.988281 -42.394531 27.21875 -41.789062 28.5625 -41.4375 C 29.550781 -41.257812 30.515625 -41.101562 31.453125 -40.96875 C 32.390625 -40.832031 33.304688 -40.675781 34.203125 -40.5 C 37.328125 -39.78125 40.03125 -38.972656 42.3125 -38.078125 C 44.59375 -37.191406 46.582031 -36.125 48.28125 -34.875 Z M 48.28125 -34.875 "/></g></g></g><g fill="#00adef" fill-opacity="1"><g transform="translate(634.711032, 386.065429)"><g><path d="M 30.578125 -23.875 C 30.578125 -20.738281 31.535156 -18.320312 33.453125 -16.625 C 35.378906 -14.925781 37.90625 -14.078125 41.03125 -14.078125 C 43.539062 -14.078125 46.046875 -14.570312 48.546875 -15.5625 L 48.546875 0 C 46.304688 0.71875 43.9375 1.320312 41.4375 1.8125 C 38.9375 2.300781 36.429688 2.546875 33.921875 2.546875 C 31.066406 2.546875 28.34375 2.1875 25.75 1.46875 C 23.15625 0.757812 20.828125 -0.460938 18.765625 -2.203125 C 16.710938 -3.953125 15.082031 -6.28125 13.875 -9.1875 C 12.664062 -12.09375 12.0625 -15.691406 12.0625 -19.984375 L 12.0625 -50.015625 L 2.546875 -50.015625 L 2.546875 -62.5 L 12.0625 -66.515625 L 12.0625 -81.40625 L 30.578125 -81.40625 L 30.578125 -66.515625 L 48.546875 -66.515625 L 48.546875 -50.015625 L 30.578125 -50.015625 Z M 30.578125 -23.875 "/></g></g></g><g fill="#00adef" fill-opacity="1"><g transform="translate(683.392116, 386.065429)"><g><path d="M 75.640625 -66.515625 L 75.640625 0 L 59.671875 0 L 57.796875 -7.109375 C 55.203125 -3.617188 52.09375 -1.289062 48.46875 -0.125 C 44.851562 1.03125 41.078125 1.609375 37.140625 1.609375 C 32.410156 1.609375 28.054688 0.691406 24.078125 -1.140625 C 20.097656 -2.972656 16.628906 -5.472656 13.671875 -8.640625 C 10.722656 -11.816406 8.421875 -15.53125 6.765625 -19.78125 C 5.117188 -24.03125 4.296875 -28.566406 4.296875 -33.390625 C 4.296875 -38.222656 5.117188 -42.757812 6.765625 -47 C 8.421875 -51.25 10.722656 -54.957031 13.671875 -58.125 C 16.628906 -61.300781 20.097656 -63.804688 24.078125 -65.640625 C 28.054688 -67.472656 32.410156 -68.390625 37.140625 -68.390625 C 41.429688 -68.390625 45.363281 -67.71875 48.9375 -66.375 C 52.519531 -65.039062 55.472656 -62.898438 57.796875 -59.953125 L 59.671875 -66.515625 Z M 57.125 -33.125 C 57.125 -36.613281 56.65625 -39.539062 55.71875 -41.90625 C 54.78125 -44.28125 53.53125 -46.203125 51.96875 -47.671875 C 50.40625 -49.148438 48.570312 -50.222656 46.46875 -50.890625 C 44.363281 -51.566406 42.109375 -51.90625 39.703125 -51.90625 C 37.285156 -51.90625 35.023438 -51.410156 32.921875 -50.421875 C 30.816406 -49.441406 28.957031 -48.125 27.34375 -46.46875 C 25.738281 -44.8125 24.488281 -42.84375 23.59375 -40.5625 C 22.707031 -38.28125 22.265625 -35.890625 22.265625 -33.390625 C 22.265625 -30.796875 22.707031 -28.378906 23.59375 -26.140625 C 24.488281 -23.910156 25.738281 -21.96875 27.34375 -20.3125 C 28.957031 -18.664062 30.816406 -17.347656 32.921875 -16.359375 C 35.023438 -15.378906 37.285156 -14.890625 39.703125 -14.890625 C 44.523438 -14.890625 48.613281 -16.382812 51.96875 -19.375 C 55.320312 -22.375 57.039062 -26.957031 57.125 -33.125 Z M 57.125 -33.125 "/></g></g></g><g fill="#00adef" fill-opacity="1"><g transform="translate(762.247444, 386.065429)"><g><path d="M 44.53125 -68.390625 C 49.175781 -68.390625 53.507812 -67.472656 57.53125 -65.640625 C 61.550781 -63.804688 65.035156 -61.300781 67.984375 -58.125 C 70.941406 -54.957031 73.242188 -51.25 74.890625 -47 C 76.546875 -42.757812 77.375 -38.222656 77.375 -33.390625 C 77.375 -28.566406 76.546875 -24.03125 74.890625 -19.78125 C 73.242188 -15.53125 70.941406 -11.816406 67.984375 -8.640625 C 65.035156 -5.472656 61.550781 -2.972656 57.53125 -1.140625 C 53.507812 0.691406 49.175781 1.609375 44.53125 1.609375 C 40.59375 1.609375 36.8125 0.914062 33.1875 -0.46875 C 29.570312 -1.851562 26.734375 -3.617188 24.671875 -5.765625 L 22 0 L 6.171875 0 L 6.171875 -97.90625 L 24.671875 -97.90625 L 24.671875 -61.15625 C 29.773438 -65.976562 36.394531 -68.390625 44.53125 -68.390625 Z M 41.96875 -14.890625 C 44.382812 -14.890625 46.644531 -15.378906 48.75 -16.359375 C 50.851562 -17.347656 52.707031 -18.664062 54.3125 -20.3125 C 55.925781 -21.96875 57.175781 -23.910156 58.0625 -26.140625 C 58.957031 -28.378906 59.40625 -30.796875 59.40625 -33.390625 C 59.40625 -35.890625 58.957031 -38.28125 58.0625 -40.5625 C 57.175781 -42.84375 55.925781 -44.8125 54.3125 -46.46875 C 52.707031 -48.125 50.851562 -49.441406 48.75 -50.421875 C 46.644531 -51.410156 44.382812 -51.90625 41.96875 -51.90625 C 39.5625 -51.90625 37.304688 -51.566406 35.203125 -50.890625 C 33.097656 -50.222656 31.265625 -49.148438 29.703125 -47.671875 C 28.140625 -46.203125 26.910156 -44.28125 26.015625 -41.90625 C 25.117188 -39.539062 24.671875 -36.613281 24.671875 -33.125 C 24.671875 -30 25.117188 -27.296875 26.015625 -25.015625 C 26.910156 -22.734375 28.140625 -20.851562 29.703125 -19.375 C 31.265625 -17.90625 33.097656 -16.789062 35.203125 -16.03125 C 37.304688 -15.269531 39.5625 -14.890625 41.96875 -14.890625 Z M 41.96875 -14.890625 "/></g></g></g><g fill="#00adef" fill-opacity="1"><g transform="translate(838.822902, 386.065429)"><g><path d="M 6.578125 -98.03125 L 25.078125 -98.03125 L 25.078125 0 L 6.578125 0 Z M 6.578125 -98.03125 "/></g></g></g><g fill="#00adef" fill-opacity="1"><g transform="translate(866.583174, 386.065429)"><g><path d="M 38.890625 -68.390625 C 43.898438 -68.390625 48.457031 -67.382812 52.5625 -65.375 C 56.675781 -63.363281 60.207031 -60.726562 63.15625 -57.46875 C 66.113281 -54.207031 68.394531 -50.453125 70 -46.203125 C 71.613281 -41.953125 72.421875 -37.59375 72.421875 -33.125 C 72.421875 -30.445312 72.0625 -27.585938 71.34375 -24.546875 L 23.875 -24.546875 C 25.65625 -21.503906 28.203125 -18.929688 31.515625 -16.828125 C 34.828125 -14.722656 38.40625 -13.671875 42.25 -13.671875 C 46.09375 -13.671875 49.46875 -13.984375 52.375 -14.609375 C 55.28125 -15.242188 58.03125 -16.050781 60.625 -17.03125 L 66.78125 -5.625 C 63.476562 -3.300781 59.703125 -1.515625 55.453125 -0.265625 C 51.203125 0.984375 46.664062 1.609375 41.84375 1.609375 C 36.5625 1.609375 31.640625 0.691406 27.078125 -1.140625 C 22.523438 -2.972656 18.550781 -5.453125 15.15625 -8.578125 C 11.757812 -11.710938 9.078125 -15.425781 7.109375 -19.71875 C 5.140625 -24.007812 4.15625 -28.566406 4.15625 -33.390625 C 4.15625 -38.128906 5.046875 -42.617188 6.828125 -46.859375 C 8.617188 -51.109375 11.101562 -54.820312 14.28125 -58 C 17.457031 -61.175781 21.144531 -63.703125 25.34375 -65.578125 C 29.550781 -67.453125 34.066406 -68.390625 38.890625 -68.390625 Z M 54.046875 -38.890625 C 52.972656 -42.734375 51.050781 -45.863281 48.28125 -48.28125 C 45.507812 -50.695312 42.378906 -51.90625 38.890625 -51.90625 C 35.316406 -51.90625 32.078125 -50.695312 29.171875 -48.28125 C 26.265625 -45.863281 24.273438 -42.734375 23.203125 -38.890625 Z M 54.046875 -38.890625 "/></g></g></g><g fill="#f7fff7" fill-opacity="1"><g transform="translate(563.315378, 503.017856)"><g><path d="M 48.28125 -34.875 C 53.195312 -31.382812 55.65625 -26.421875 55.65625 -19.984375 C 55.65625 -17.035156 54.960938 -14.265625 53.578125 -11.671875 C 52.191406 -9.078125 50.289062 -6.796875 47.875 -4.828125 C 45.457031 -2.859375 42.640625 -1.316406 39.421875 -0.203125 C 36.203125 0.910156 32.765625 1.46875 29.109375 1.46875 C 26.328125 1.46875 23.617188 1.109375 20.984375 0.390625 C 18.347656 -0.316406 15.910156 -1.296875 13.671875 -2.546875 C 11.441406 -3.796875 9.5 -5.289062 7.84375 -7.03125 C 6.1875 -8.78125 4.957031 -10.726562 4.15625 -12.875 C 6.207031 -13.851562 8.484375 -14.945312 10.984375 -16.15625 C 13.492188 -17.363281 15.6875 -18.460938 17.5625 -19.453125 C 18.375 -18.109375 19.628906 -16.875 21.328125 -15.75 C 23.023438 -14.632812 25.347656 -14.078125 28.296875 -14.078125 C 31.335938 -14.078125 33.570312 -14.789062 35 -16.21875 C 36.425781 -17.65625 37.140625 -19 37.140625 -20.25 C 37.140625 -21.144531 36.648438 -21.972656 35.671875 -22.734375 C 34.691406 -23.492188 33.578125 -24.097656 32.328125 -24.546875 C 30.535156 -25.253906 29.054688 -25.628906 27.890625 -25.671875 C 26.734375 -25.722656 25.394531 -25.972656 23.875 -26.421875 C 19.039062 -27.578125 15.347656 -29.113281 12.796875 -31.03125 C 10.253906 -32.957031 8.398438 -34.90625 7.234375 -36.875 C 6.078125 -38.84375 5.429688 -40.71875 5.296875 -42.5 C 5.160156 -44.289062 5.09375 -45.722656 5.09375 -46.796875 C 5.09375 -49.660156 5.71875 -52.390625 6.96875 -54.984375 C 8.21875 -57.578125 9.9375 -59.832031 12.125 -61.75 C 14.320312 -63.675781 16.875 -65.21875 19.78125 -66.375 C 22.6875 -67.539062 25.796875 -68.125 29.109375 -68.125 C 31.878906 -68.125 34.515625 -67.722656 37.015625 -66.921875 C 39.515625 -66.117188 41.789062 -65 43.84375 -63.5625 C 45.90625 -62.132812 47.671875 -60.4375 49.140625 -58.46875 C 50.617188 -56.5 51.71875 -54.3125 52.4375 -51.90625 L 38.09375 -47.078125 C 37.550781 -48.679688 36.453125 -49.972656 34.796875 -50.953125 C 33.148438 -51.941406 31.382812 -52.4375 29.5 -52.4375 C 27.625 -52.4375 26.101562 -51.8125 24.9375 -50.5625 C 23.78125 -49.3125 23.203125 -48.054688 23.203125 -46.796875 C 23.203125 -45.285156 23.757812 -44.101562 24.875 -43.25 C 25.988281 -42.394531 27.21875 -41.789062 28.5625 -41.4375 C 29.550781 -41.257812 30.515625 -41.101562 31.453125 -40.96875 C 32.390625 -40.832031 33.304688 -40.675781 34.203125 -40.5 C 37.328125 -39.78125 40.03125 -38.972656 42.3125 -38.078125 C 44.59375 -37.191406 46.582031 -36.125 48.28125 -34.875 Z M 48.28125 -34.875 "/></g></g></g><g fill="#f7fff7" fill-opacity="1"><g transform="translate(620.040595, 503.017856)"><g><path d="M 38.75 -68.390625 C 43.488281 -68.390625 47.957031 -67.472656 52.15625 -65.640625 C 56.363281 -63.804688 60.03125 -61.300781 63.15625 -58.125 C 66.289062 -54.957031 68.773438 -51.25 70.609375 -47 C 72.441406 -42.757812 73.359375 -38.222656 73.359375 -33.390625 C 73.359375 -28.566406 72.441406 -24.03125 70.609375 -19.78125 C 68.773438 -15.53125 66.289062 -11.816406 63.15625 -8.640625 C 60.03125 -5.472656 56.363281 -2.972656 52.15625 -1.140625 C 47.957031 0.691406 43.488281 1.609375 38.75 1.609375 C 33.925781 1.609375 29.410156 0.691406 25.203125 -1.140625 C 21.003906 -2.972656 17.335938 -5.472656 14.203125 -8.640625 C 11.078125 -11.816406 8.597656 -15.53125 6.765625 -19.78125 C 4.929688 -24.03125 4.015625 -28.566406 4.015625 -33.390625 C 4.015625 -38.222656 4.929688 -42.757812 6.765625 -47 C 8.597656 -51.25 11.078125 -54.957031 14.203125 -58.125 C 17.335938 -61.300781 21.003906 -63.804688 25.203125 -65.640625 C 29.410156 -67.472656 33.925781 -68.390625 38.75 -68.390625 Z M 38.75 -14.625 C 40.988281 -14.625 43.066406 -15.066406 44.984375 -15.953125 C 46.910156 -16.847656 48.609375 -18.078125 50.078125 -19.640625 C 51.554688 -21.210938 52.71875 -23.09375 53.5625 -25.28125 C 54.414062 -27.46875 54.84375 -29.90625 54.84375 -32.59375 C 54.84375 -35.269531 54.414062 -37.769531 53.5625 -40.09375 C 52.71875 -42.414062 51.554688 -44.445312 50.078125 -46.1875 C 48.609375 -47.9375 46.910156 -49.328125 44.984375 -50.359375 C 43.066406 -51.390625 40.988281 -51.90625 38.75 -51.90625 C 36.519531 -51.90625 34.421875 -51.390625 32.453125 -50.359375 C 30.484375 -49.328125 28.757812 -47.9375 27.28125 -46.1875 C 25.8125 -44.445312 24.648438 -42.414062 23.796875 -40.09375 C 22.953125 -37.769531 22.53125 -35.269531 22.53125 -32.59375 C 22.53125 -29.90625 22.953125 -27.46875 23.796875 -25.28125 C 24.648438 -23.09375 25.8125 -21.210938 27.28125 -19.640625 C 28.757812 -18.078125 30.484375 -16.847656 32.453125 -15.953125 C 34.421875 -15.066406 36.519531 -14.625 38.75 -14.625 Z M 38.75 -14.625 "/></g></g></g><g fill="#f7fff7" fill-opacity="1"><g transform="translate(694.333232, 503.017856)"><g><path d="M 11.265625 -72.15625 C 11.265625 -76.800781 11.957031 -80.800781 13.34375 -84.15625 C 14.726562 -87.507812 16.582031 -90.28125 18.90625 -92.46875 C 21.226562 -94.65625 23.910156 -96.265625 26.953125 -97.296875 C 29.992188 -98.328125 33.210938 -98.84375 36.609375 -98.84375 C 38.671875 -98.84375 40.726562 -98.660156 42.78125 -98.296875 C 44.832031 -97.941406 46.890625 -97.40625 48.953125 -96.6875 L 47.46875 -83.140625 L 43.046875 -83.8125 C 42.328125 -83.90625 41.675781 -83.972656 41.09375 -84.015625 C 40.519531 -84.066406 39.960938 -84.09375 39.421875 -84.09375 C 36.023438 -84.09375 33.546875 -83.265625 31.984375 -81.609375 C 30.421875 -79.953125 29.640625 -77.5625 29.640625 -74.4375 L 29.640625 -66.515625 L 47.46875 -66.515625 L 47.46875 -50.015625 L 29.640625 -50.015625 L 29.640625 0 L 11.265625 0 L 11.265625 -50.015625 L 2.546875 -50.015625 L 2.546875 -59.8125 L 11.265625 -66.515625 Z M 11.265625 -72.15625 "/></g></g></g><g fill="#f7fff7" fill-opacity="1"><g transform="translate(742.475893, 503.017856)"><g><path d="M 30.578125 -23.875 C 30.578125 -20.738281 31.535156 -18.320312 33.453125 -16.625 C 35.378906 -14.925781 37.90625 -14.078125 41.03125 -14.078125 C 43.539062 -14.078125 46.046875 -14.570312 48.546875 -15.5625 L 48.546875 0 C 46.304688 0.71875 43.9375 1.320312 41.4375 1.8125 C 38.9375 2.300781 36.429688 2.546875 33.921875 2.546875 C 31.066406 2.546875 28.34375 2.1875 25.75 1.46875 C 23.15625 0.757812 20.828125 -0.460938 18.765625 -2.203125 C 16.710938 -3.953125 15.082031 -6.28125 13.875 -9.1875 C 12.664062 -12.09375 12.0625 -15.691406 12.0625 -19.984375 L 12.0625 -50.015625 L 2.546875 -50.015625 L 2.546875 -62.5 L 12.0625 -66.515625 L 12.0625 -81.40625 L 30.578125 -81.40625 L 30.578125 -66.515625 L 48.546875 -66.515625 L 48.546875 -50.015625 L 30.578125 -50.015625 Z M 30.578125 -23.875 "/></g></g></g><g fill="#f7fff7" fill-opacity="1"><g transform="translate(791.154974, 503.017856)"><g><path d="M 93.46875 -66.515625 L 112.515625 -66.515625 L 92.53125 0 L 69.0625 0 L 59.40625 -32.046875 L 58.46875 -41.578125 L 57.40625 -32.046875 L 47.75 0 L 24.40625 0 L 4.421875 -66.515625 L 23.46875 -66.515625 L 37.28125 -18.375 L 50.6875 -66.515625 L 66.109375 -66.515625 L 79.53125 -18.109375 Z M 93.46875 -66.515625 "/></g></g></g><g fill="#f7fff7" fill-opacity="1"><g transform="translate(905.27603, 503.017856)"><g><path d="M 75.640625 -66.515625 L 75.640625 0 L 59.671875 0 L 57.796875 -7.109375 C 55.203125 -3.617188 52.09375 -1.289062 48.46875 -0.125 C 44.851562 1.03125 41.078125 1.609375 37.140625 1.609375 C 32.410156 1.609375 28.054688 0.691406 24.078125 -1.140625 C 20.097656 -2.972656 16.628906 -5.472656 13.671875 -8.640625 C 10.722656 -11.816406 8.421875 -15.53125 6.765625 -19.78125 C 5.117188 -24.03125 4.296875 -28.566406 4.296875 -33.390625 C 4.296875 -38.222656 5.117188 -42.757812 6.765625 -47 C 8.421875 -51.25 10.722656 -54.957031 13.671875 -58.125 C 16.628906 -61.300781 20.097656 -63.804688 24.078125 -65.640625 C 28.054688 -67.472656 32.410156 -68.390625 37.140625 -68.390625 C 41.429688 -68.390625 45.363281 -67.71875 48.9375 -66.375 C 52.519531 -65.039062 55.472656 -62.898438 57.796875 -59.953125 L 59.671875 -66.515625 Z M 57.125 -33.125 C 57.125 -36.613281 56.65625 -39.539062 55.71875 -41.90625 C 54.78125 -44.28125 53.53125 -46.203125 51.96875 -47.671875 C 50.40625 -49.148438 48.570312 -50.222656 46.46875 -50.890625 C 44.363281 -51.566406 42.109375 -51.90625 39.703125 -51.90625 C 37.285156 -51.90625 35.023438 -51.410156 32.921875 -50.421875 C 30.816406 -49.441406 28.957031 -48.125 27.34375 -46.46875 C 25.738281 -44.8125 24.488281 -42.84375 23.59375 -40.5625 C 22.707031 -38.28125 22.265625 -35.890625 22.265625 -33.390625 C 22.265625 -30.796875 22.707031 -28.378906 23.59375 -26.140625 C 24.488281 -23.910156 25.738281 -21.96875 27.34375 -20.3125 C 28.957031 -18.664062 30.816406 -17.347656 32.921875 -16.359375 C 35.023438 -15.378906 37.285156 -14.890625 39.703125 -14.890625 C 44.523438 -14.890625 48.613281 -16.382812 51.96875 -19.375 C 55.320312 -22.375 57.039062 -26.957031 57.125 -33.125 Z M 57.125 -33.125 "/></g></g></g><g fill="#f7fff7" fill-opacity="1"><g transform="translate(984.128163, 503.017856)"><g><path d="M 24.28125 -57.265625 C 25.164062 -58.691406 26.191406 -60.050781 27.359375 -61.34375 C 28.523438 -62.644531 29.910156 -63.8125 31.515625 -64.84375 C 33.117188 -65.875 34.945312 -66.703125 37 -67.328125 C 39.0625 -67.953125 41.390625 -68.265625 43.984375 -68.265625 C 47.023438 -68.265625 50.554688 -67.726562 54.578125 -66.65625 L 52.84375 -50.15625 C 51.851562 -50.332031 50.867188 -50.554688 49.890625 -50.828125 C 49.085938 -51.003906 48.191406 -51.160156 47.203125 -51.296875 C 46.222656 -51.429688 45.332031 -51.5 44.53125 -51.5 C 41.664062 -51.5 39.003906 -51.09375 36.546875 -50.28125 C 34.085938 -49.476562 31.960938 -48.363281 30.171875 -46.9375 C 28.390625 -45.507812 26.960938 -43.785156 25.890625 -41.765625 C 24.816406 -39.753906 24.28125 -37.585938 24.28125 -35.265625 L 24.28125 0 L 5.765625 0 L 5.765625 -66.515625 L 22.53125 -66.515625 Z M 24.28125 -57.265625 "/></g></g></g><g fill="#f7fff7" fill-opacity="1"><g transform="translate(1036.696223, 503.017856)"><g><path d="M 38.890625 -68.390625 C 43.898438 -68.390625 48.457031 -67.382812 52.5625 -65.375 C 56.675781 -63.363281 60.207031 -60.726562 63.15625 -57.46875 C 66.113281 -54.207031 68.394531 -50.453125 70 -46.203125 C 71.613281 -41.953125 72.421875 -37.59375 72.421875 -33.125 C 72.421875 -30.445312 72.0625 -27.585938 71.34375 -24.546875 L 23.875 -24.546875 C 25.65625 -21.503906 28.203125 -18.929688 31.515625 -16.828125 C 34.828125 -14.722656 38.40625 -13.671875 42.25 -13.671875 C 46.09375 -13.671875 49.46875 -13.984375 52.375 -14.609375 C 55.28125 -15.242188 58.03125 -16.050781 60.625 -17.03125 L 66.78125 -5.625 C 63.476562 -3.300781 59.703125 -1.515625 55.453125 -0.265625 C 51.203125 0.984375 46.664062 1.609375 41.84375 1.609375 C 36.5625 1.609375 31.640625 0.691406 27.078125 -1.140625 C 22.523438 -2.972656 18.550781 -5.453125 15.15625 -8.578125 C 11.757812 -11.710938 9.078125 -15.425781 7.109375 -19.71875 C 5.140625 -24.007812 4.15625 -28.566406 4.15625 -33.390625 C 4.15625 -38.128906 5.046875 -42.617188 6.828125 -46.859375 C 8.617188 -51.109375 11.101562 -54.820312 14.28125 -58 C 17.457031 -61.175781 21.144531 -63.703125 25.34375 -65.578125 C 29.550781 -67.453125 34.066406 -68.390625 38.890625 -68.390625 Z M 54.046875 -38.890625 C 52.972656 -42.734375 51.050781 -45.863281 48.28125 -48.28125 C 45.507812 -50.695312 42.378906 -51.90625 38.890625 -51.90625 C 35.316406 -51.90625 32.078125 -50.695312 29.171875 -48.28125 C 26.265625 -45.863281 24.273438 -42.734375 23.203125 -38.890625 Z M 54.046875 -38.890625 "/></g></g></g></svg>